<?xml version="1.0" encoding="UTF-8" standalone="no"?>
<!-- Created with Inkscape (http://www.inkscape.org/) -->

<svg
   xmlns:dc="http://purl.org/dc/elements/1.1/"
   xmlns:cc="http://creativecommons.org/ns#"
   xmlns:rdf="http://www.w3.org/1999/02/22-rdf-syntax-ns#"
   xmlns:svg="http://www.w3.org/2000/svg"
   xmlns="http://www.w3.org/2000/svg"
   xmlns:sodipodi="http://sodipodi.sourceforge.net/DTD/sodipodi-0.dtd"
   xmlns:inkscape="http://www.inkscape.org/namespaces/inkscape"
   width="100.57034mm"
   height="112.47773mm"
   viewBox="0 0 100.57034 112.47773"
   version="1.1"
   id="svg8"
   sodipodi:docname="icra-ws-urp-logo.svg"
   inkscape:export-filename="/home/arturokkboss33/Seafile/ieee-icra-2019-workshop-jekyll/img/ws_logo/icra-ws-urp-logo.png"
   inkscape:export-xdpi="113"
   inkscape:export-ydpi="113"
   inkscape:version="0.92.4 (unknown)">
  <defs
     id="defs2" />
  <sodipodi:namedview
     id="base"
     pagecolor="#ffffff"
     bordercolor="#666666"
     borderopacity="1.0"
     inkscape:pageopacity="0.0"
     inkscape:pageshadow="2"
     inkscape:zoom="0.64"
     inkscape:cx="-254.00024"
     inkscape:cy="76.321306"
     inkscape:document-units="mm"
     inkscape:current-layer="layer1"
     showgrid="false"
     fit-margin-top="0"
     fit-margin-left="0"
     fit-margin-right="0"
     fit-margin-bottom="0"
     inkscape:window-width="1855"
     inkscape:window-height="1056"
     inkscape:window-x="1985"
     inkscape:window-y="24"
     inkscape:window-maximized="1" />
  <metadata
     id="metadata5">
    <rdf:RDF>
      <cc:Work
         rdf:about="">
        <dc:format>image/svg+xml</dc:format>
        <dc:type
           rdf:resource="http://purl.org/dc/dcmitype/StillImage" />
        <dc:title></dc:title>
      </cc:Work>
    </rdf:RDF>
  </metadata>
  <g
     inkscape:label="Layer 1"
     inkscape:groupmode="layer"
     id="layer1"
     transform="translate(-46.260771,-66.34815)">
    <path
       style="opacity:1;fill:none;fill-opacity:0.99545456;stroke:#002d58;stroke-width:5;stroke-linecap:round;stroke-linejoin:round;stroke-miterlimit:4;stroke-dasharray:none;stroke-dashoffset:0;stroke-opacity:1"
       id="path4518"
       sodipodi:type="arc"
       sodipodi:cx="90.903275"
       sodipodi:cy="126.34375"
       sodipodi:rx="42.144348"
       sodipodi:ry="42.52232"
       sodipodi:start="3.6851231"
       sodipodi:end="3.6651914"
       sodipodi:open="true"
       d="M 54.832424,104.35287 A 42.144348,42.52232 0 0 1 112.51867,89.840271 42.144348,42.52232 0 0 1 127.18954,147.97084 42.144348,42.52232 0 0 1 69.649497,163.06276 42.144348,42.52232 0 0 1 54.405198,105.08259" />
    <path
       style="opacity:1;fill:none;fill-opacity:0.99545456;stroke:#002d58;stroke-width:8;stroke-linecap:round;stroke-linejoin:round;stroke-miterlimit:4;stroke-dasharray:none;stroke-dashoffset:0;stroke-opacity:1"
       id="path4518-8"
       sodipodi:type="arc"
       sodipodi:cx="71.135231"
       sodipodi:cy="123.72274"
       sodipodi:rx="17.880102"
       sodipodi:ry="18.040459"
       sodipodi:start="3.6851231"
       sodipodi:end="3.6651914"
       sodipodi:open="true"
       d="m 55.831862,114.39292 a 17.880102,18.040459 0 0 1 24.473888,-6.15709 17.880102,18.040459 0 0 1 6.224241,24.66239 17.880102,18.040459 0 0 1 -24.411858,6.40288 17.880102,18.040459 0 0 1 -6.467525,-24.59859" />
    <path
       style="opacity:1;fill:none;fill-opacity:0.99545456;stroke:#002d58;stroke-width:8;stroke-linecap:round;stroke-linejoin:round;stroke-miterlimit:4;stroke-dasharray:none;stroke-dashoffset:0;stroke-opacity:1"
       id="path4518-8-7"
       sodipodi:type="arc"
       sodipodi:cx="111.4275"
       sodipodi:cy="123.50877"
       sodipodi:rx="17.880102"
       sodipodi:ry="18.040459"
       sodipodi:start="3.6851231"
       sodipodi:end="3.6651914"
       sodipodi:open="true"
       d="m 96.124129,114.17895 a 17.880102,18.040459 0 0 1 24.473891,-6.15709 17.880102,18.040459 0 0 1 6.22424,24.66239 17.880102,18.040459 0 0 1 -24.41186,6.40288 17.880102,18.040459 0 0 1 -6.467525,-24.59859" />
    <path
       style="opacity:1;fill:none;fill-opacity:0.99545456;stroke:#002d58;stroke-width:43.19460297;stroke-linecap:round;stroke-linejoin:round;stroke-miterlimit:4;stroke-dasharray:none;stroke-dashoffset:0;stroke-opacity:1"
       d="m 339.92082,424.10457 c -10.84046,-18.27821 -30.752,-32.68202 -52.85355,-38.23373 -19.83639,-4.98272 -46.15888,-0.13282 -63.92858,11.77881 -4.91071,3.29182 -8.92857,5.64652 -8.92857,5.23267 0,-2.74801 15.23836,-22.77278 24.21115,-31.81593 55.88701,-56.32532 144.84371,-58.72363 204.75564,-5.52028 8.61584,7.6511 26.41716,29.1489 25.16974,30.39632 -0.319,0.319 -5.25351,-1.67471 -10.96557,-4.43046 -38.94509,-18.78886 -85.50403,-4.71719 -107.83921,32.5926 l -4.83296,8.07323 z"
       id="path4550"
       inkscape:connector-curvature="0"
       transform="scale(0.26458333)" />
    <path
       style="opacity:1;fill:none;fill-opacity:0.99545456;stroke:#002d58;stroke-width:43.19460297;stroke-linecap:round;stroke-linejoin:round;stroke-miterlimit:4;stroke-dasharray:none;stroke-dashoffset:0;stroke-opacity:1"
       d="m 336.32432,386.54964 c -9.76742,-8.11457 -30.60923,-18.89581 -41.98358,-21.71765 l -7.72653,-1.91685 10.58367,-4.39779 c 19.29362,-8.01699 46.08866,-11.00898 66.39273,-7.41355 9.30953,1.64853 27.94275,7.51805 33.32413,10.49721 l 3.4189,1.89272 -5.04302,0.94608 c -13.07588,2.45305 -32.78221,12.94578 -44.36484,23.62228 l -6.05869,5.5847 z"
       id="path4552"
       inkscape:connector-curvature="0"
       transform="scale(0.26458333)" />
    <path
       style="opacity:1;fill:#ffffff;fill-opacity:1;stroke:#002d58;stroke-width:3;stroke-linecap:round;stroke-linejoin:round;stroke-miterlimit:4;stroke-dasharray:none;stroke-dashoffset:0;stroke-opacity:1"
       id="path4518-8-4"
       sodipodi:type="arc"
       sodipodi:cx="91.907433"
       sodipodi:cy="162.83359"
       sodipodi:rx="13.94073"
       sodipodi:ry="14.505315"
       sodipodi:start="3.6851231"
       sodipodi:end="3.6651914"
       sodipodi:open="true"
       d="m 79.975726,155.33201 a 13.94073,14.505315 0 0 1 19.081763,-4.95058 13.94073,14.505315 0 0 1 4.852911,19.82964 13.94073,14.505315 0 0 1 -19.033404,5.14819 13.94073,14.505315 0 0 1 -5.04259,-19.77833" />
    <path
       style="opacity:1;fill:#ffffff;fill-opacity:1;stroke:#002d58;stroke-width:3;stroke-linecap:round;stroke-linejoin:round;stroke-miterlimit:4;stroke-dasharray:9.00000025, 9.00000025;stroke-dashoffset:0;stroke-opacity:1"
       id="path4518-8-4-0"
       sodipodi:type="arc"
       sodipodi:cx="91.804153"
       sodipodi:cy="162.89421"
       sodipodi:rx="9.6573086"
       sodipodi:ry="10.048419"
       sodipodi:start="3.6851231"
       sodipodi:end="3.6651914"
       sodipodi:open="true"
       d="m 83.538577,157.69756 a 9.6573086,10.048419 0 0 1 13.21871,-3.42946 9.6573086,10.048419 0 0 1 3.361803,13.73679 9.6573086,10.048419 0 0 1 -13.185205,3.56636 A 9.6573086,10.048419 0 0 1 83.440679,157.87" />
    <path
       style="opacity:1;fill:none;fill-opacity:1;stroke:#002d58;stroke-width:5;stroke-linecap:round;stroke-linejoin:round;stroke-miterlimit:4;stroke-dasharray:none;stroke-dashoffset:0;stroke-opacity:1"
       id="path4609"
       sodipodi:type="arc"
       sodipodi:cx="101.42236"
       sodipodi:cy="125.57671"
       sodipodi:rx="42.899269"
       sodipodi:ry="47.751728"
       sodipodi:start="5.3407132"
       sodipodi:end="1.5485283"
       sodipodi:open="true"
       d="m 126.63812,86.944914 a 42.899269,47.751728 0 0 1 15.7289,52.881476 42.899269,47.751728 0 0 1 -39.98945,33.49021" />
    <rect
       style="opacity:1;fill:#002d58;fill-opacity:1;stroke:#002d58;stroke-width:4.06010008;stroke-linecap:round;stroke-linejoin:round;stroke-miterlimit:4;stroke-dasharray:none;stroke-dashoffset:0;stroke-opacity:1"
       id="rect4611"
       width="8.8729181"
       height="8.7148552"
       x="10.045127"
       y="141.31526"
       transform="matrix(0.70310759,-0.71108348,0.77152563,0.63619825,0,0)" />
    <path
       style="opacity:1;fill:#00bbdb;fill-opacity:1;stroke:#002d58;stroke-width:1.20000005;stroke-linecap:round;stroke-linejoin:round;stroke-miterlimit:4;stroke-dasharray:none;stroke-dashoffset:0;stroke-opacity:1"
       id="path4613"
       sodipodi:type="arc"
       sodipodi:cx="102.2473"
       sodipodi:cy="74.635521"
       sodipodi:rx="5.7108431"
       sodipodi:ry="5.7122116"
       sodipodi:start="5.3407075"
       sodipodi:end="5.3087893"
       d="m 105.60405,70.014245 a 5.7108431,5.7122116 0 0 1 1.29006,7.941847 5.7108431,5.7122116 0 0 1 -7.929402,1.353698 5.7108431,5.7122116 0 0 1 -1.416603,-7.920244 5.7108431,5.7122116 0 0 1 7.906795,-1.480096"
       sodipodi:open="true" />
    <path
       style="opacity:1;fill:#00bbdb;fill-opacity:1;stroke:#002d58;stroke-width:1.20000005;stroke-linecap:round;stroke-linejoin:round;stroke-miterlimit:4;stroke-dasharray:none;stroke-dashoffset:0;stroke-opacity:1"
       id="path4613-0"
       sodipodi:type="arc"
       sodipodi:cx="112.2276"
       sodipodi:cy="77.736061"
       sodipodi:rx="3.3451576"
       sodipodi:ry="3.1889141"
       sodipodi:start="5.3407075"
       sodipodi:end="5.3087893"
       d="m 114.19383,75.156175 a 3.3451576,3.1889141 0 0 1 0.75566,4.433637 3.3451576,3.1889141 0 0 1 -4.64469,0.755719 3.3451576,3.1889141 0 0 1 -0.82978,-4.421576 3.3451576,3.1889141 0 0 1 4.63145,-0.826283"
       sodipodi:open="true" />
    <path
       style="opacity:1;fill:#00bbdb;fill-opacity:1;stroke:#002d58;stroke-width:1.20000005;stroke-linecap:round;stroke-linejoin:round;stroke-miterlimit:4;stroke-dasharray:none;stroke-dashoffset:0;stroke-opacity:1"
       id="path4613-0-7"
       sodipodi:type="arc"
       sodipodi:cx="114.14896"
       sodipodi:cy="70.138672"
       sodipodi:rx="3.3451579"
       sodipodi:ry="3.1889141"
       sodipodi:start="5.3407075"
       sodipodi:end="5.3087893"
       d="m 116.11519,67.558786 a 3.3451579,3.1889141 0 0 1 0.75566,4.433637 3.3451579,3.1889141 0 0 1 -4.64469,0.755718 3.3451579,3.1889141 0 0 1 -0.82978,-4.421576 3.3451579,3.1889141 0 0 1 4.63144,-0.826282"
       sodipodi:open="true" />
    <path
       style="opacity:1;fill:#00bbdb;fill-opacity:1;stroke:#002d58;stroke-width:6.47919035;stroke-linecap:round;stroke-linejoin:round;stroke-miterlimit:4;stroke-dasharray:none;stroke-dashoffset:0;stroke-opacity:1"
       d="m 253.98753,517.69627 c -14.88357,-5.55728 -26.06222,-15.68379 -32.40015,-29.35063 -5.00465,-10.7918 -5.25001,-28.39191 -0.56004,-40.17145 9.57368,-24.04566 36.82473,-37.81529 60.95576,-30.80022 10.4547,3.03927 17.00883,7.18089 24.85432,15.7057 9.89652,10.75343 12.35227,17.58247 12.36331,34.38024 0.008,12.90344 -0.39412,15.10754 -4.16091,22.77932 -8.87382,18.07321 -24.2961,28.12622 -44.40113,28.94286 -7.24919,0.29445 -13.33844,-0.2489 -16.65116,-1.48582 z"
       id="path4649"
       inkscape:connector-curvature="0"
       transform="scale(0.26458333)" />
    <path
       style="opacity:1;fill:#00bbdb;fill-opacity:1;stroke:#002d58;stroke-width:6.47919035;stroke-linecap:round;stroke-linejoin:round;stroke-miterlimit:4;stroke-dasharray:none;stroke-dashoffset:0;stroke-opacity:1"
       d="m 411.54118,518.12248 c -15.60564,-3.21485 -29.06546,-13.70095 -36.20713,-28.20774 -4.31369,-8.76234 -4.69536,-10.64566 -4.69536,-23.16912 0,-12.52346 0.38167,-14.40678 4.69536,-23.16912 17.42503,-35.39527 66.32489,-38.92312 87.94729,-6.34491 12.65446,19.06633 12.26645,42.57845 -1.00092,60.65223 -11.41801,15.55444 -32.55376,23.98498 -50.73924,20.23866 z"
       id="path4651"
       inkscape:connector-curvature="0"
       transform="scale(0.26458333)" />
    <path
       style="opacity:1;vector-effect:none;fill:#ffffff;fill-opacity:1;stroke:none;stroke-width:17.71653557;stroke-linecap:round;stroke-linejoin:round;stroke-miterlimit:4;stroke-dasharray:none;stroke-dashoffset:0;stroke-opacity:1"
       d="m 99.81553,359.72867 c -6.065389,-3.22052 -14.502889,-8.41076 -18.75,-11.53386 -9.731643,-7.15614 -28.203171,-26.27677 -34.928799,-36.15623 -5.893998,-8.65785 -18.137336,-33.97105 -19.783936,-40.90346 -1.029734,-4.33531 -0.303134,-3.91142 9.670889,5.64194 17.246399,16.51901 34.838755,23.6859 57.675935,23.49638 15.609981,-0.12954 24.812501,-2.2118 38.216621,-8.64727 11.85459,-5.69153 28.53069,-21.45055 34.28952,-32.40382 l 3.79878,-7.22526 5.69817,8.78776 c 28.31363,43.66555 87.45919,52.15446 126.15642,18.10671 4.51172,-3.96964 8.20313,-6.42133 8.20313,-5.44821 0,4.23911 -10.18866,25.12664 -17.88911,36.67409 -13.34797,20.01632 -34.16817,39.25016 -52.62445,48.61481 l -7.2323,3.66964 -1.78227,-9.05906 c -3.91375,-19.89318 -16.07579,-35.8836 -33.49082,-44.03308 -36.97604,-17.30318 -77.62477,6.34798 -83.20477,48.41208 -0.57963,4.3695 -1.49064,7.92604 -2.02446,7.90344 -0.53381,-0.0226 -5.93316,-2.67608 -11.99855,-5.8966 z"
       id="path4693"
       inkscape:connector-curvature="0"
       transform="matrix(0.26458333,0,0,0.26458333,46.260771,66.34815)" />
  </g>
</svg>
